# Blender 3.3.1
# www.blender.org
mtllib road_straight_rotated.mtl
o road_straight
v -0.400000 0.010000 -0.500000
v -0.400000 0.010000 0.500000
v -0.400000 0.020000 -0.500000
v -0.400000 0.020000 0.500000
v -0.500000 0.000000 0.500000
v -0.500000 0.000000 -0.500000
v -0.500000 0.020000 0.500000
v -0.500000 0.020000 -0.500000
v 0.400000 0.010000 0.500000
v 0.400000 0.010000 -0.500000
v 0.400000 0.020000 0.500000
v 0.400000 0.020000 -0.500000
v 0.500000 -0.000000 -0.500000
v 0.500000 -0.000000 0.500000
v 0.500000 0.020000 -0.500000
v 0.500000 0.020000 0.500000
v 0.300000 0.010000 -0.500000
v 0.010000 0.010000 -0.500000
v -0.010000 0.010000 -0.500000
v -0.300000 0.010000 -0.500000
v -0.300000 0.010000 0.500000
v -0.010000 0.010000 0.500000
v 0.010000 0.010000 0.500000
v 0.300000 0.010000 0.500000
vn 1.0000 -0.0000 -0.0000
vn -1.0000 -0.0000 -0.0000
vn -0.0000 -1.0000 -0.0000
vn -0.0000 1.0000 -0.0000
vn -0.0000 -0.0000 -1.0000
vn -0.0000 -0.0000 1.0000
vn -0.0000 -0.0001 1.0000
vt 19.685040 0.393701
vt 15.748030 0.393701
vt -19.685040 -15.748030
vt -19.685040 0.393701
vt -15.748030 0.393701
vt 19.685040 -15.748030
vt 19.685040 0.787402
vt -19.685040 -15.748030
vt 15.748030 0.787402
vt -19.685040 0.787402
vt 19.685040 -15.748030
vt -15.748030 0.787402
vt 19.685040 0.000000
vt -19.685040 -19.685040
vt -19.685040 -0.000000
vt -19.685040 0.000000
vt 19.685040 -19.685040
vt 19.685040 0.000000
vt 19.685040 0.787402
vt 19.685040 -19.685040
vt -19.685040 0.787402
vt -19.685040 0.787402
vt -19.685040 -19.685040
vt 19.685040 0.787402
vt 19.685040 0.393701
vt 15.748030 0.393701
vt 19.685040 15.748030
vt -19.685040 0.393701
vt -15.748030 0.393701
vt -19.685040 15.748030
vt 19.685040 0.787402
vt 19.685040 15.748030
vt 15.748030 0.787402
vt -19.685040 0.787402
vt -19.685040 15.748030
vt -15.748030 0.787402
vt 19.685040 19.685040
vt 19.685040 0.000000
vt -19.685040 0.000000
vt -19.685040 19.685040
vt -19.685040 0.000000
vt 19.685040 -0.000000
vt 19.685040 0.787402
vt -19.685040 19.685040
vt -19.685040 0.787402
vt -19.685040 0.787402
vt 19.685040 19.685040
vt 19.685040 0.787402
vt -11.811020 0.393701
vt -19.685040 11.811020
vt -0.393701 0.393701
vt -19.685040 0.393701
vt 0.393701 0.393701
vt -19.685040 -0.393701
vt 11.811020 0.393701
vt -19.685040 -11.811020
vt -11.811020 0.393701
vt 19.685040 -11.811020
vt -0.393701 0.393701
vt 19.685040 -0.393701
vt 0.393701 0.393701
vt 19.685040 0.393701
vt 11.811020 0.393701
vt 19.685040 11.811020
s 0
usemtl pavement
f 3/7/1 2/4/1 1/1/1
f 2/4/1 3/7/1 4/10/1
f 7/19/2 6/16/2 5/13/2
f 6/16/2 7/19/2 8/22/2
f 11/31/2 10/28/2 9/25/2
f 10/28/2 11/31/2 12/34/2
f 14/40/3 6/17/3 13/37/3
f 6/17/3 14/40/3 5/14/3
f 7/20/4 3/8/4 8/23/4
f 3/8/4 7/20/4 4/11/4
f 15/43/1 14/41/1 13/38/1
f 14/41/1 15/43/1 16/46/1
f 11/32/4 15/44/4 12/35/4
f 15/44/4 11/32/4 16/47/4
usemtl asphalt
f 15/45/5 10/29/5 12/36/5
f 13/39/5 10/29/5 15/45/5
f 13/39/5 17/49/5 10/29/5
f 13/39/5 18/51/5 17/49/5
f 13/39/5 19/53/5 18/51/5
f 13/39/5 20/55/5 19/53/5
f 13/39/5 1/2/5 20/55/5
f 6/18/5 1/2/5 13/39/5
f 6/18/5 3/9/5 1/2/5
f 3/9/5 6/18/5 8/24/5
f 5/15/6 2/5/6 7/21/6
f 2/5/6 5/15/6 14/42/6
f 2/5/7 14/42/7 21/57/7
f 21/57/6 14/42/6 22/59/6
f 22/59/6 14/42/6 23/61/6
f 23/61/6 14/42/6 24/63/6
f 24/63/6 14/42/6 9/26/6
f 9/26/6 14/42/6 11/33/6
f 11/33/6 14/42/6 16/48/6
f 4/12/6 7/21/6 2/5/6
f 18/52/4 24/64/4 17/50/4
f 24/64/4 18/52/4 23/62/4
f 21/58/4 19/54/4 20/56/4
f 19/54/4 21/58/4 22/60/4
usemtl asphaltEdge
f 2/6/4 20/56/4 1/3/4
f 20/56/4 2/6/4 21/58/4
f 24/64/4 10/30/4 17/50/4
f 10/30/4 24/64/4 9/27/4
usemtl line
f 22/60/4 18/52/4 19/54/4
f 18/52/4 22/60/4 23/62/4
